<mxfile host="65bd71144e">
    <diagram id="WMO_lad1RLv2jvi0x0Yx" name="Page-1">
        <mxGraphModel dx="1155" dy="637" grid="1" gridSize="10" guides="1" tooltips="1" connect="1" arrows="1" fold="1" page="1" pageScale="1" pageWidth="827" pageHeight="1169" math="0" shadow="0">
            <root>
                <mxCell id="0"/>
                <mxCell id="1" parent="0"/>
                <mxCell id="87" value="user" style="shape=table;startSize=30;container=1;collapsible=0;childLayout=tableLayout;strokeColor=default;align=center;verticalAlign=middle;fontFamily=Helvetica;fontSize=16;fontColor=default;fontStyle=0;resizable=1;fillColor=default;" parent="1" vertex="1">
                    <mxGeometry x="342" y="470" width="190" height="150" as="geometry"/>
                </mxCell>
                <mxCell id="88" value="" style="shape=tableRow;horizontal=0;startSize=0;swimlaneHead=0;swimlaneBody=0;strokeColor=inherit;top=0;left=0;bottom=0;right=0;collapsible=0;dropTarget=0;fillColor=none;points=[[0,0.5],[1,0.5]];portConstraint=eastwest;align=center;verticalAlign=middle;fontFamily=Helvetica;fontSize=16;fontColor=default;fontStyle=0;resizable=1;" parent="87" vertex="1">
                    <mxGeometry y="30" width="190" height="40" as="geometry"/>
                </mxCell>
                <mxCell id="89" value="UUID" style="shape=partialRectangle;html=1;whiteSpace=wrap;connectable=0;strokeColor=inherit;overflow=hidden;fillColor=none;top=0;left=0;bottom=0;right=0;pointerEvents=1;align=center;verticalAlign=middle;fontFamily=Helvetica;fontSize=16;fontColor=default;fontStyle=0;resizable=1;" parent="88" vertex="1">
                    <mxGeometry width="95" height="40" as="geometry">
                        <mxRectangle width="95" height="40" as="alternateBounds"/>
                    </mxGeometry>
                </mxCell>
                <mxCell id="90" value="UUID" style="shape=partialRectangle;html=1;whiteSpace=wrap;connectable=0;strokeColor=inherit;overflow=hidden;fillColor=none;top=0;left=0;bottom=0;right=0;pointerEvents=1;align=center;verticalAlign=middle;fontFamily=Helvetica;fontSize=16;fontColor=default;fontStyle=0;resizable=1;" parent="88" vertex="1">
                    <mxGeometry x="95" width="95" height="40" as="geometry">
                        <mxRectangle width="95" height="40" as="alternateBounds"/>
                    </mxGeometry>
                </mxCell>
                <mxCell id="91" value="" style="shape=tableRow;horizontal=0;startSize=0;swimlaneHead=0;swimlaneBody=0;strokeColor=inherit;top=0;left=0;bottom=0;right=0;collapsible=0;dropTarget=0;fillColor=none;points=[[0,0.5],[1,0.5]];portConstraint=eastwest;align=center;verticalAlign=middle;fontFamily=Helvetica;fontSize=16;fontColor=default;fontStyle=0;resizable=1;" parent="87" vertex="1">
                    <mxGeometry y="70" width="190" height="40" as="geometry"/>
                </mxCell>
                <mxCell id="92" value="login" style="shape=partialRectangle;html=1;whiteSpace=wrap;connectable=0;strokeColor=inherit;overflow=hidden;fillColor=none;top=0;left=0;bottom=0;right=0;pointerEvents=1;align=center;verticalAlign=middle;fontFamily=Helvetica;fontSize=16;fontColor=default;fontStyle=0;resizable=1;" parent="91" vertex="1">
                    <mxGeometry width="95" height="40" as="geometry">
                        <mxRectangle width="95" height="40" as="alternateBounds"/>
                    </mxGeometry>
                </mxCell>
                <mxCell id="93" value="VARCHAR" style="shape=partialRectangle;html=1;whiteSpace=wrap;connectable=0;strokeColor=inherit;overflow=hidden;fillColor=none;top=0;left=0;bottom=0;right=0;pointerEvents=1;align=center;verticalAlign=middle;fontFamily=Helvetica;fontSize=16;fontColor=default;fontStyle=0;resizable=1;" parent="91" vertex="1">
                    <mxGeometry x="95" width="95" height="40" as="geometry">
                        <mxRectangle width="95" height="40" as="alternateBounds"/>
                    </mxGeometry>
                </mxCell>
                <mxCell id="94" value="" style="shape=tableRow;horizontal=0;startSize=0;swimlaneHead=0;swimlaneBody=0;strokeColor=inherit;top=0;left=0;bottom=0;right=0;collapsible=0;dropTarget=0;fillColor=none;points=[[0,0.5],[1,0.5]];portConstraint=eastwest;align=center;verticalAlign=middle;fontFamily=Helvetica;fontSize=16;fontColor=default;fontStyle=0;resizable=1;" parent="87" vertex="1">
                    <mxGeometry y="110" width="190" height="40" as="geometry"/>
                </mxCell>
                <mxCell id="95" value="password" style="shape=partialRectangle;html=1;whiteSpace=wrap;connectable=0;strokeColor=inherit;overflow=hidden;fillColor=none;top=0;left=0;bottom=0;right=0;pointerEvents=1;align=center;verticalAlign=middle;fontFamily=Helvetica;fontSize=16;fontColor=default;fontStyle=0;resizable=1;" parent="94" vertex="1">
                    <mxGeometry width="95" height="40" as="geometry">
                        <mxRectangle width="95" height="40" as="alternateBounds"/>
                    </mxGeometry>
                </mxCell>
                <mxCell id="96" value="VARCHAR" style="shape=partialRectangle;html=1;whiteSpace=wrap;connectable=0;strokeColor=inherit;overflow=hidden;fillColor=none;top=0;left=0;bottom=0;right=0;pointerEvents=1;align=center;verticalAlign=middle;fontFamily=Helvetica;fontSize=16;fontColor=default;fontStyle=0;resizable=1;" parent="94" vertex="1">
                    <mxGeometry x="95" width="95" height="40" as="geometry">
                        <mxRectangle width="95" height="40" as="alternateBounds"/>
                    </mxGeometry>
                </mxCell>
                <mxCell id="98" value="material_service" style="shape=table;startSize=30;container=1;collapsible=0;childLayout=tableLayout;fontSize=16;" vertex="1" parent="1">
                    <mxGeometry x="1070" y="520" width="260" height="150" as="geometry"/>
                </mxCell>
                <mxCell id="99" value="" style="shape=tableRow;horizontal=0;startSize=0;swimlaneHead=0;swimlaneBody=0;strokeColor=inherit;top=0;left=0;bottom=0;right=0;collapsible=0;dropTarget=0;fillColor=none;points=[[0,0.5],[1,0.5]];portConstraint=eastwest;fontSize=16;" vertex="1" parent="98">
                    <mxGeometry y="30" width="260" height="40" as="geometry"/>
                </mxCell>
                <mxCell id="100" value="id" style="shape=partialRectangle;html=1;whiteSpace=wrap;connectable=0;strokeColor=inherit;overflow=hidden;fillColor=none;top=0;left=0;bottom=0;right=0;pointerEvents=1;fontSize=16;" vertex="1" parent="99">
                    <mxGeometry width="130" height="40" as="geometry">
                        <mxRectangle width="130" height="40" as="alternateBounds"/>
                    </mxGeometry>
                </mxCell>
                <mxCell id="101" value="SERIAL" style="shape=partialRectangle;html=1;whiteSpace=wrap;connectable=0;strokeColor=inherit;overflow=hidden;fillColor=none;top=0;left=0;bottom=0;right=0;pointerEvents=1;fontSize=16;" vertex="1" parent="99">
                    <mxGeometry x="130" width="130" height="40" as="geometry">
                        <mxRectangle width="130" height="40" as="alternateBounds"/>
                    </mxGeometry>
                </mxCell>
                <mxCell id="102" value="" style="shape=tableRow;horizontal=0;startSize=0;swimlaneHead=0;swimlaneBody=0;strokeColor=inherit;top=0;left=0;bottom=0;right=0;collapsible=0;dropTarget=0;fillColor=none;points=[[0,0.5],[1,0.5]];portConstraint=eastwest;fontSize=16;" vertex="1" parent="98">
                    <mxGeometry y="70" width="260" height="40" as="geometry"/>
                </mxCell>
                <mxCell id="103" value="service_id" style="shape=partialRectangle;html=1;whiteSpace=wrap;connectable=0;strokeColor=inherit;overflow=hidden;fillColor=none;top=0;left=0;bottom=0;right=0;pointerEvents=1;fontSize=16;" vertex="1" parent="102">
                    <mxGeometry width="130" height="40" as="geometry">
                        <mxRectangle width="130" height="40" as="alternateBounds"/>
                    </mxGeometry>
                </mxCell>
                <mxCell id="104" value="UnsignedBigInt" style="shape=partialRectangle;html=1;whiteSpace=wrap;connectable=0;strokeColor=inherit;overflow=hidden;fillColor=none;top=0;left=0;bottom=0;right=0;pointerEvents=1;fontSize=16;" vertex="1" parent="102">
                    <mxGeometry x="130" width="130" height="40" as="geometry">
                        <mxRectangle width="130" height="40" as="alternateBounds"/>
                    </mxGeometry>
                </mxCell>
                <mxCell id="105" value="" style="shape=tableRow;horizontal=0;startSize=0;swimlaneHead=0;swimlaneBody=0;strokeColor=inherit;top=0;left=0;bottom=0;right=0;collapsible=0;dropTarget=0;fillColor=none;points=[[0,0.5],[1,0.5]];portConstraint=eastwest;fontSize=16;" vertex="1" parent="98">
                    <mxGeometry y="110" width="260" height="40" as="geometry"/>
                </mxCell>
                <mxCell id="106" value="material_id" style="shape=partialRectangle;html=1;whiteSpace=wrap;connectable=0;strokeColor=inherit;overflow=hidden;fillColor=none;top=0;left=0;bottom=0;right=0;pointerEvents=1;fontSize=16;" vertex="1" parent="105">
                    <mxGeometry width="130" height="40" as="geometry">
                        <mxRectangle width="130" height="40" as="alternateBounds"/>
                    </mxGeometry>
                </mxCell>
                <mxCell id="107" value="UnsingedBigInt" style="shape=partialRectangle;html=1;whiteSpace=wrap;connectable=0;strokeColor=inherit;overflow=hidden;fillColor=none;top=0;left=0;bottom=0;right=0;pointerEvents=1;fontSize=16;" vertex="1" parent="105">
                    <mxGeometry x="130" width="130" height="40" as="geometry">
                        <mxRectangle width="130" height="40" as="alternateBounds"/>
                    </mxGeometry>
                </mxCell>
                <mxCell id="133" value="" style="endArrow=classic;html=1;rounded=0;exitX=1;exitY=0.5;exitDx=0;exitDy=0;entryX=0;entryY=0.5;entryDx=0;entryDy=0;" edge="1" parent="1" source="91" target="115">
                    <mxGeometry width="50" height="50" relative="1" as="geometry">
                        <mxPoint x="500" y="520" as="sourcePoint"/>
                        <mxPoint x="570" y="660" as="targetPoint"/>
                    </mxGeometry>
                </mxCell>
                <mxCell id="108" value="service" style="shape=table;startSize=30;container=1;collapsible=0;childLayout=tableLayout;fontSize=16;" vertex="1" parent="1">
                    <mxGeometry x="674" y="440" width="320" height="270" as="geometry"/>
                </mxCell>
                <mxCell id="109" value="" style="shape=tableRow;horizontal=0;startSize=0;swimlaneHead=0;swimlaneBody=0;strokeColor=inherit;top=0;left=0;bottom=0;right=0;collapsible=0;dropTarget=0;fillColor=none;points=[[0,0.5],[1,0.5]];portConstraint=eastwest;fontSize=16;" vertex="1" parent="108">
                    <mxGeometry y="30" width="320" height="40" as="geometry"/>
                </mxCell>
                <mxCell id="110" value="id" style="shape=partialRectangle;html=1;whiteSpace=wrap;connectable=0;strokeColor=inherit;overflow=hidden;fillColor=none;top=0;left=0;bottom=0;right=0;pointerEvents=1;fontSize=16;" vertex="1" parent="109">
                    <mxGeometry width="160" height="40" as="geometry">
                        <mxRectangle width="160" height="40" as="alternateBounds"/>
                    </mxGeometry>
                </mxCell>
                <mxCell id="111" value="SERIAL" style="shape=partialRectangle;html=1;whiteSpace=wrap;connectable=0;strokeColor=inherit;overflow=hidden;fillColor=none;top=0;left=0;bottom=0;right=0;pointerEvents=1;fontSize=16;" vertex="1" parent="109">
                    <mxGeometry x="160" width="160" height="40" as="geometry">
                        <mxRectangle width="160" height="40" as="alternateBounds"/>
                    </mxGeometry>
                </mxCell>
                <mxCell id="112" value="" style="shape=tableRow;horizontal=0;startSize=0;swimlaneHead=0;swimlaneBody=0;strokeColor=inherit;top=0;left=0;bottom=0;right=0;collapsible=0;dropTarget=0;fillColor=none;points=[[0,0.5],[1,0.5]];portConstraint=eastwest;fontSize=16;" vertex="1" parent="108">
                    <mxGeometry y="70" width="320" height="40" as="geometry"/>
                </mxCell>
                <mxCell id="113" value="service_type" style="shape=partialRectangle;html=1;whiteSpace=wrap;connectable=0;strokeColor=inherit;overflow=hidden;fillColor=none;top=0;left=0;bottom=0;right=0;pointerEvents=1;fontSize=16;" vertex="1" parent="112">
                    <mxGeometry width="160" height="40" as="geometry">
                        <mxRectangle width="160" height="40" as="alternateBounds"/>
                    </mxGeometry>
                </mxCell>
                <mxCell id="114" value="CHAR (1)" style="shape=partialRectangle;html=1;whiteSpace=wrap;connectable=0;strokeColor=inherit;overflow=hidden;fillColor=none;top=0;left=0;bottom=0;right=0;pointerEvents=1;fontSize=16;" vertex="1" parent="112">
                    <mxGeometry x="160" width="160" height="40" as="geometry">
                        <mxRectangle width="160" height="40" as="alternateBounds"/>
                    </mxGeometry>
                </mxCell>
                <mxCell id="115" value="" style="shape=tableRow;horizontal=0;startSize=0;swimlaneHead=0;swimlaneBody=0;strokeColor=inherit;top=0;left=0;bottom=0;right=0;collapsible=0;dropTarget=0;fillColor=none;points=[[0,0.5],[1,0.5]];portConstraint=eastwest;fontSize=16;" vertex="1" parent="108">
                    <mxGeometry y="110" width="320" height="40" as="geometry"/>
                </mxCell>
                <mxCell id="116" value="client_name" style="shape=partialRectangle;html=1;whiteSpace=wrap;connectable=0;strokeColor=inherit;overflow=hidden;fillColor=none;top=0;left=0;bottom=0;right=0;pointerEvents=1;fontSize=16;" vertex="1" parent="115">
                    <mxGeometry width="160" height="40" as="geometry">
                        <mxRectangle width="160" height="40" as="alternateBounds"/>
                    </mxGeometry>
                </mxCell>
                <mxCell id="117" value="VARCHAR" style="shape=partialRectangle;html=1;whiteSpace=wrap;connectable=0;strokeColor=inherit;overflow=hidden;fillColor=none;top=0;left=0;bottom=0;right=0;pointerEvents=1;fontSize=16;" vertex="1" parent="115">
                    <mxGeometry x="160" width="160" height="40" as="geometry">
                        <mxRectangle width="160" height="40" as="alternateBounds"/>
                    </mxGeometry>
                </mxCell>
                <mxCell id="118" value="" style="shape=tableRow;horizontal=0;startSize=0;swimlaneHead=0;swimlaneBody=0;strokeColor=inherit;top=0;left=0;bottom=0;right=0;collapsible=0;dropTarget=0;fillColor=none;points=[[0,0.5],[1,0.5]];portConstraint=eastwest;fontSize=16;" vertex="1" parent="108">
                    <mxGeometry y="150" width="320" height="40" as="geometry"/>
                </mxCell>
                <mxCell id="119" value="client_contact" style="shape=partialRectangle;html=1;whiteSpace=wrap;connectable=0;strokeColor=inherit;overflow=hidden;fillColor=none;top=0;left=0;bottom=0;right=0;pointerEvents=1;fontSize=16;" vertex="1" parent="118">
                    <mxGeometry width="160" height="40" as="geometry">
                        <mxRectangle width="160" height="40" as="alternateBounds"/>
                    </mxGeometry>
                </mxCell>
                <mxCell id="120" value="VARCHAR" style="shape=partialRectangle;html=1;whiteSpace=wrap;connectable=0;strokeColor=inherit;overflow=hidden;fillColor=none;top=0;left=0;bottom=0;right=0;pointerEvents=1;fontSize=16;" vertex="1" parent="118">
                    <mxGeometry x="160" width="160" height="40" as="geometry">
                        <mxRectangle width="160" height="40" as="alternateBounds"/>
                    </mxGeometry>
                </mxCell>
                <mxCell id="121" value="" style="shape=tableRow;horizontal=0;startSize=0;swimlaneHead=0;swimlaneBody=0;strokeColor=inherit;top=0;left=0;bottom=0;right=0;collapsible=0;dropTarget=0;fillColor=none;points=[[0,0.5],[1,0.5]];portConstraint=eastwest;fontSize=16;" vertex="1" parent="108">
                    <mxGeometry y="190" width="320" height="40" as="geometry"/>
                </mxCell>
                <mxCell id="122" value="priece" style="shape=partialRectangle;html=1;whiteSpace=wrap;connectable=0;strokeColor=inherit;overflow=hidden;fillColor=none;top=0;left=0;bottom=0;right=0;pointerEvents=1;fontSize=16;" vertex="1" parent="121">
                    <mxGeometry width="160" height="40" as="geometry">
                        <mxRectangle width="160" height="40" as="alternateBounds"/>
                    </mxGeometry>
                </mxCell>
                <mxCell id="123" value="DECIMAL(7, 2)" style="shape=partialRectangle;html=1;whiteSpace=wrap;connectable=0;strokeColor=inherit;overflow=hidden;fillColor=none;top=0;left=0;bottom=0;right=0;pointerEvents=1;fontSize=16;" vertex="1" parent="121">
                    <mxGeometry x="160" width="160" height="40" as="geometry">
                        <mxRectangle width="160" height="40" as="alternateBounds"/>
                    </mxGeometry>
                </mxCell>
                <mxCell id="124" value="" style="shape=tableRow;horizontal=0;startSize=0;swimlaneHead=0;swimlaneBody=0;strokeColor=inherit;top=0;left=0;bottom=0;right=0;collapsible=0;dropTarget=0;fillColor=none;points=[[0,0.5],[1,0.5]];portConstraint=eastwest;fontSize=16;" vertex="1" parent="108">
                    <mxGeometry y="230" width="320" height="40" as="geometry"/>
                </mxCell>
                <mxCell id="125" value="expenses" style="shape=partialRectangle;html=1;whiteSpace=wrap;connectable=0;strokeColor=inherit;overflow=hidden;fillColor=none;top=0;left=0;bottom=0;right=0;pointerEvents=1;fontSize=16;" vertex="1" parent="124">
                    <mxGeometry width="160" height="40" as="geometry">
                        <mxRectangle width="160" height="40" as="alternateBounds"/>
                    </mxGeometry>
                </mxCell>
                <mxCell id="126" value="DECIMAL(7, 2)" style="shape=partialRectangle;html=1;whiteSpace=wrap;connectable=0;strokeColor=inherit;overflow=hidden;fillColor=none;top=0;left=0;bottom=0;right=0;pointerEvents=1;fontSize=16;" vertex="1" parent="124">
                    <mxGeometry x="160" width="160" height="40" as="geometry">
                        <mxRectangle width="160" height="40" as="alternateBounds"/>
                    </mxGeometry>
                </mxCell>
                <mxCell id="137" value="" style="endArrow=classic;html=1;rounded=0;exitX=1.016;exitY=0.95;exitDx=0;exitDy=0;exitPerimeter=0;entryX=-0.015;entryY=0.1;entryDx=0;entryDy=0;entryPerimeter=0;" edge="1" parent="1" source="115" target="102">
                    <mxGeometry width="50" height="50" relative="1" as="geometry">
                        <mxPoint x="994" y="570" as="sourcePoint"/>
                        <mxPoint x="1157" y="716" as="targetPoint"/>
                    </mxGeometry>
                </mxCell>
                <mxCell id="152" value="material" style="shape=table;startSize=30;container=1;collapsible=0;childLayout=tableLayout;fontSize=16;" vertex="1" parent="1">
                    <mxGeometry x="1080" y="770" width="260" height="190" as="geometry"/>
                </mxCell>
                <mxCell id="153" value="" style="shape=tableRow;horizontal=0;startSize=0;swimlaneHead=0;swimlaneBody=0;strokeColor=inherit;top=0;left=0;bottom=0;right=0;collapsible=0;dropTarget=0;fillColor=none;points=[[0,0.5],[1,0.5]];portConstraint=eastwest;fontSize=16;" vertex="1" parent="152">
                    <mxGeometry y="30" width="260" height="40" as="geometry"/>
                </mxCell>
                <mxCell id="154" value="id" style="shape=partialRectangle;html=1;whiteSpace=wrap;connectable=0;strokeColor=inherit;overflow=hidden;fillColor=none;top=0;left=0;bottom=0;right=0;pointerEvents=1;fontSize=16;" vertex="1" parent="153">
                    <mxGeometry width="130" height="40" as="geometry">
                        <mxRectangle width="130" height="40" as="alternateBounds"/>
                    </mxGeometry>
                </mxCell>
                <mxCell id="155" value="SERIAL" style="shape=partialRectangle;html=1;whiteSpace=wrap;connectable=0;strokeColor=inherit;overflow=hidden;fillColor=none;top=0;left=0;bottom=0;right=0;pointerEvents=1;fontSize=16;" vertex="1" parent="153">
                    <mxGeometry x="130" width="130" height="40" as="geometry">
                        <mxRectangle width="130" height="40" as="alternateBounds"/>
                    </mxGeometry>
                </mxCell>
                <mxCell id="156" value="" style="shape=tableRow;horizontal=0;startSize=0;swimlaneHead=0;swimlaneBody=0;strokeColor=inherit;top=0;left=0;bottom=0;right=0;collapsible=0;dropTarget=0;fillColor=none;points=[[0,0.5],[1,0.5]];portConstraint=eastwest;fontSize=16;" vertex="1" parent="152">
                    <mxGeometry y="70" width="260" height="40" as="geometry"/>
                </mxCell>
                <mxCell id="157" value="name" style="shape=partialRectangle;html=1;whiteSpace=wrap;connectable=0;strokeColor=inherit;overflow=hidden;fillColor=none;top=0;left=0;bottom=0;right=0;pointerEvents=1;fontSize=16;" vertex="1" parent="156">
                    <mxGeometry width="130" height="40" as="geometry">
                        <mxRectangle width="130" height="40" as="alternateBounds"/>
                    </mxGeometry>
                </mxCell>
                <mxCell id="158" value="VARCHAR" style="shape=partialRectangle;html=1;whiteSpace=wrap;connectable=0;strokeColor=inherit;overflow=hidden;fillColor=none;top=0;left=0;bottom=0;right=0;pointerEvents=1;fontSize=16;" vertex="1" parent="156">
                    <mxGeometry x="130" width="130" height="40" as="geometry">
                        <mxRectangle width="130" height="40" as="alternateBounds"/>
                    </mxGeometry>
                </mxCell>
                <mxCell id="159" value="" style="shape=tableRow;horizontal=0;startSize=0;swimlaneHead=0;swimlaneBody=0;strokeColor=inherit;top=0;left=0;bottom=0;right=0;collapsible=0;dropTarget=0;fillColor=none;points=[[0,0.5],[1,0.5]];portConstraint=eastwest;fontSize=16;" vertex="1" parent="152">
                    <mxGeometry y="110" width="260" height="40" as="geometry"/>
                </mxCell>
                <mxCell id="160" value="priece" style="shape=partialRectangle;html=1;whiteSpace=wrap;connectable=0;strokeColor=inherit;overflow=hidden;fillColor=none;top=0;left=0;bottom=0;right=0;pointerEvents=1;fontSize=16;" vertex="1" parent="159">
                    <mxGeometry width="130" height="40" as="geometry">
                        <mxRectangle width="130" height="40" as="alternateBounds"/>
                    </mxGeometry>
                </mxCell>
                <mxCell id="161" value="DECIMA(7,2)" style="shape=partialRectangle;html=1;whiteSpace=wrap;connectable=0;strokeColor=inherit;overflow=hidden;fillColor=none;top=0;left=0;bottom=0;right=0;pointerEvents=1;fontSize=16;" vertex="1" parent="159">
                    <mxGeometry x="130" width="130" height="40" as="geometry">
                        <mxRectangle width="130" height="40" as="alternateBounds"/>
                    </mxGeometry>
                </mxCell>
                <mxCell id="162" value="" style="shape=tableRow;horizontal=0;startSize=0;swimlaneHead=0;swimlaneBody=0;strokeColor=inherit;top=0;left=0;bottom=0;right=0;collapsible=0;dropTarget=0;fillColor=none;points=[[0,0.5],[1,0.5]];portConstraint=eastwest;fontSize=16;" vertex="1" parent="152">
                    <mxGeometry y="150" width="260" height="40" as="geometry"/>
                </mxCell>
                <mxCell id="163" value="size" style="shape=partialRectangle;html=1;whiteSpace=wrap;connectable=0;strokeColor=inherit;overflow=hidden;fillColor=none;top=0;left=0;bottom=0;right=0;pointerEvents=1;fontSize=16;" vertex="1" parent="162">
                    <mxGeometry width="130" height="40" as="geometry">
                        <mxRectangle width="130" height="40" as="alternateBounds"/>
                    </mxGeometry>
                </mxCell>
                <mxCell id="164" value="DECIMA(2,1)" style="shape=partialRectangle;html=1;whiteSpace=wrap;connectable=0;strokeColor=inherit;overflow=hidden;fillColor=none;top=0;left=0;bottom=0;right=0;pointerEvents=1;fontSize=16;" vertex="1" parent="162">
                    <mxGeometry x="130" width="130" height="40" as="geometry">
                        <mxRectangle width="130" height="40" as="alternateBounds"/>
                    </mxGeometry>
                </mxCell>
                <mxCell id="165" value="" style="endArrow=classic;html=1;rounded=0;exitX=0.5;exitY=0;exitDx=0;exitDy=0;entryX=0.519;entryY=1.099;entryDx=0;entryDy=0;entryPerimeter=0;" edge="1" parent="1" source="152" target="105">
                    <mxGeometry width="50" height="50" relative="1" as="geometry">
                        <mxPoint x="1263" y="754" as="sourcePoint"/>
                        <mxPoint x="1440" y="740" as="targetPoint"/>
                    </mxGeometry>
                </mxCell>
                <mxCell id="168" value="cash" style="shape=table;startSize=30;container=1;collapsible=0;childLayout=tableLayout;fontSize=16;" vertex="1" parent="1">
                    <mxGeometry x="700" y="810" width="260" height="150" as="geometry"/>
                </mxCell>
                <mxCell id="169" value="" style="shape=tableRow;horizontal=0;startSize=0;swimlaneHead=0;swimlaneBody=0;strokeColor=inherit;top=0;left=0;bottom=0;right=0;collapsible=0;dropTarget=0;fillColor=none;points=[[0,0.5],[1,0.5]];portConstraint=eastwest;fontSize=16;" vertex="1" parent="168">
                    <mxGeometry y="30" width="260" height="40" as="geometry"/>
                </mxCell>
                <mxCell id="170" value="id" style="shape=partialRectangle;html=1;whiteSpace=wrap;connectable=0;strokeColor=inherit;overflow=hidden;fillColor=none;top=0;left=0;bottom=0;right=0;pointerEvents=1;fontSize=16;" vertex="1" parent="169">
                    <mxGeometry width="130" height="40" as="geometry">
                        <mxRectangle width="130" height="40" as="alternateBounds"/>
                    </mxGeometry>
                </mxCell>
                <mxCell id="171" value="SERIAL" style="shape=partialRectangle;html=1;whiteSpace=wrap;connectable=0;strokeColor=inherit;overflow=hidden;fillColor=none;top=0;left=0;bottom=0;right=0;pointerEvents=1;fontSize=16;" vertex="1" parent="169">
                    <mxGeometry x="130" width="130" height="40" as="geometry">
                        <mxRectangle width="130" height="40" as="alternateBounds"/>
                    </mxGeometry>
                </mxCell>
                <mxCell id="172" value="" style="shape=tableRow;horizontal=0;startSize=0;swimlaneHead=0;swimlaneBody=0;strokeColor=inherit;top=0;left=0;bottom=0;right=0;collapsible=0;dropTarget=0;fillColor=none;points=[[0,0.5],[1,0.5]];portConstraint=eastwest;fontSize=16;" vertex="1" parent="168">
                    <mxGeometry y="70" width="260" height="40" as="geometry"/>
                </mxCell>
                <mxCell id="173" value="current_value" style="shape=partialRectangle;html=1;whiteSpace=wrap;connectable=0;strokeColor=inherit;overflow=hidden;fillColor=none;top=0;left=0;bottom=0;right=0;pointerEvents=1;fontSize=16;" vertex="1" parent="172">
                    <mxGeometry width="130" height="40" as="geometry">
                        <mxRectangle width="130" height="40" as="alternateBounds"/>
                    </mxGeometry>
                </mxCell>
                <mxCell id="174" value="DECIMAL(8, 2)" style="shape=partialRectangle;html=1;whiteSpace=wrap;connectable=0;strokeColor=inherit;overflow=hidden;fillColor=none;top=0;left=0;bottom=0;right=0;pointerEvents=1;fontSize=16;" vertex="1" parent="172">
                    <mxGeometry x="130" width="130" height="40" as="geometry">
                        <mxRectangle width="130" height="40" as="alternateBounds"/>
                    </mxGeometry>
                </mxCell>
                <mxCell id="175" value="" style="shape=tableRow;horizontal=0;startSize=0;swimlaneHead=0;swimlaneBody=0;strokeColor=inherit;top=0;left=0;bottom=0;right=0;collapsible=0;dropTarget=0;fillColor=none;points=[[0,0.5],[1,0.5]];portConstraint=eastwest;fontSize=16;" vertex="1" parent="168">
                    <mxGeometry y="110" width="260" height="40" as="geometry"/>
                </mxCell>
                <mxCell id="176" value="last_transaction" style="shape=partialRectangle;html=1;whiteSpace=wrap;connectable=0;strokeColor=inherit;overflow=hidden;fillColor=none;top=0;left=0;bottom=0;right=0;pointerEvents=1;fontSize=16;" vertex="1" parent="175">
                    <mxGeometry width="130" height="40" as="geometry">
                        <mxRectangle width="130" height="40" as="alternateBounds"/>
                    </mxGeometry>
                </mxCell>
                <mxCell id="177" value="DECIMAL(7,2)" style="shape=partialRectangle;html=1;whiteSpace=wrap;connectable=0;strokeColor=inherit;overflow=hidden;fillColor=none;top=0;left=0;bottom=0;right=0;pointerEvents=1;fontSize=16;" vertex="1" parent="175">
                    <mxGeometry x="130" width="130" height="40" as="geometry">
                        <mxRectangle width="130" height="40" as="alternateBounds"/>
                    </mxGeometry>
                </mxCell>
                <mxCell id="178" value="" style="endArrow=classic;html=1;rounded=0;entryX=0.526;entryY=0;entryDx=0;entryDy=0;entryPerimeter=0;exitX=0.497;exitY=1.068;exitDx=0;exitDy=0;exitPerimeter=0;" edge="1" parent="1" source="124" target="168">
                    <mxGeometry width="50" height="50" relative="1" as="geometry">
                        <mxPoint x="414" y="564" as="sourcePoint"/>
                        <mxPoint x="577" y="710" as="targetPoint"/>
                    </mxGeometry>
                </mxCell>
            </root>
        </mxGraphModel>
    </diagram>
</mxfile>
